<?xml version="1.0" standalone="no"?>
<!DOCTYPE svg PUBLIC "-//W3C//DTD SVG 20010904//EN"
 "http://www.w3.org/TR/2001/REC-SVG-20010904/DTD/svg10.dtd">
<svg version="1.0" xmlns="http://www.w3.org/2000/svg"
 width="800.000000pt" height="790.000000pt" viewBox="0 0 800.000000 790.000000"
 preserveAspectRatio="xMidYMid meet">

<g transform="translate(0.000000,790.000000) scale(0.100000,-0.100000)"
fill="#ffffff" stroke="none">
<path d="M3696 7666 c-67 -25 -81 -43 -39 -48 l28 -3 3 -167 c2 -141 0 -168
-13 -182 -9 -9 -25 -16 -36 -16 -10 0 -19 -4 -19 -10 0 -6 45 -10 115 -10 70
0 115 4 115 10 0 6 -9 10 -19 10 -46 0 -52 22 -49 183 l3 151 34 23 c39 26 88
30 117 9 17 -13 19 -28 19 -178 l0 -163 -32 -15 c-18 -8 -33 -18 -33 -22 0 -5
52 -8 115 -8 108 0 146 10 90 24 -40 10 -46 35 -43 188 l3 142 34 23 c39 26
88 30 117 9 17 -13 19 -28 19 -178 l0 -163 -32 -15 c-18 -8 -33 -18 -33 -22 0
-5 52 -8 115 -8 70 0 115 4 115 10 0 6 -8 10 -17 10 -45 1 -48 12 -54 187 -6
182 -14 215 -60 239 -51 26 -111 18 -170 -22 -36 -24 -55 -32 -58 -23 -2 7
-16 24 -30 37 -23 21 -33 23 -83 20 -41 -3 -65 -11 -91 -31 -20 -15 -38 -27
-41 -27 -3 0 -6 14 -6 30 0 36 -6 36 -84 6z"/>
<path d="M3170 7599 c-25 -5 -63 -21 -84 -36 -144 -101 -100 -367 70 -423 58
-20 149 -7 197 27 92 64 119 202 64 315 -31 64 -79 102 -147 117 -25 6 -47 10
-50 10 -3 -1 -25 -5 -50 -10z m93 -68 c76 -67 121 -235 83 -309 -20 -38 -44
-52 -90 -52 -95 0 -203 204 -166 314 25 78 111 101 173 47z"/>
<path d="M4710 7603 c-49 -19 -83 -78 -62 -109 25 -38 82 -16 82 31 0 54 65
73 115 34 24 -20 26 -26 20 -68 -4 -25 -12 -51 -18 -57 -7 -6 -46 -16 -87 -23
-132 -21 -183 -58 -196 -140 -6 -37 -3 -44 29 -76 30 -30 42 -35 81 -35 26 0
63 7 83 15 20 8 37 14 37 13 25 -69 65 -90 122 -62 45 23 60 50 21 41 -48 -13
-51 10 -22 140 43 190 35 244 -41 282 -30 16 -138 25 -164 14z m116 -294 c-17
-72 -41 -99 -89 -99 -57 0 -94 59 -67 109 14 28 60 54 115 66 60 14 61 12 41
-76z"/>
<path d="M2330 7524 c-8 -3 -84 -38 -167 -77 -150 -70 -192 -102 -118 -90 25
4 41 1 54 -11 17 -16 222 -436 236 -483 4 -16 -2 -29 -25 -49 -57 -52 -14 -46
109 15 67 33 120 64 119 68 -2 4 -23 8 -48 8 l-45 0 -46 90 c-62 119 -65 131
-40 145 17 9 49 -4 193 -76 l173 -86 73 32 c73 33 99 65 44 54 -30 -6 -79 12
-265 100 l-98 47 36 33 c64 61 80 130 45 200 -31 62 -63 80 -145 83 -38 1 -77
0 -85 -3z m64 -68 c43 -18 76 -72 76 -124 0 -32 -7 -49 -30 -76 -30 -33 -117
-92 -126 -84 -2 3 -28 56 -58 119 -62 130 -62 130 26 160 65 22 70 23 112 5z"/>
<path d="M5380 7378 c0 -7 9 -19 20 -26 11 -7 20 -18 20 -25 0 -14 -110 -245
-135 -283 -11 -16 -25 -24 -45 -24 -17 0 -30 -4 -30 -9 0 -11 189 -96 197 -87
4 3 -3 13 -15 22 -12 8 -22 23 -22 32 0 26 117 265 137 280 23 17 84 15 111
-4 37 -26 28 -74 -41 -214 -62 -124 -62 -125 -99 -128 -21 -2 -38 -7 -38 -11
0 -13 189 -95 198 -86 4 4 1 10 -6 12 -7 3 -17 13 -23 24 -8 16 3 47 55 163
69 150 78 193 51 245 -20 40 -63 55 -140 49 l-64 -6 14 29 c8 15 15 30 15 32
0 3 -30 8 -67 12 -36 4 -72 9 -80 12 -7 3 -13 -1 -13 -9z"/>
<path d="M6142 6928 c-152 -26 -245 -215 -171 -348 32 -58 97 -107 153 -115
94 -15 199 41 254 133 22 39 27 59 27 112 -1 146 -119 244 -263 218z m162 -80
c26 -28 28 -36 23 -83 -16 -156 -163 -295 -258 -245 -79 43 -54 199 49 305 70
72 134 80 186 23z"/>
<path d="M984 6516 c-3 -14 0 -75 6 -136 12 -100 14 -110 28 -96 17 17 40 210
29 239 -10 27 -55 22 -63 -7z"/>
<path d="M1146 6364 c-44 -54 -55 -74 -38 -74 4 0 16 7 26 15 11 8 25 15 32
15 7 0 65 -41 128 -92 115 -90 116 -91 116 -133 0 -80 -60 -119 -120 -78 -23
15 -202 157 -241 190 -15 13 -22 8 -63 -42 -25 -31 -43 -61 -40 -67 4 -5 13
-3 23 6 10 9 23 16 31 16 7 0 65 -42 129 -93 135 -109 149 -117 193 -117 74 0
136 80 126 164 -4 35 4 47 17 26 3 -5 14 -14 24 -19 15 -9 21 0 45 60 29 74
28 93 -2 66 -10 -10 -24 -17 -30 -17 -6 0 -76 52 -156 115 -79 63 -146 115
-149 115 -2 0 -25 -25 -51 -56z"/>
<path d="M7380 5966 c0 -3 5 -17 10 -31 7 -18 7 -33 -1 -47 -13 -25 -465 -248
-503 -248 -16 0 -32 9 -42 25 -17 25 -34 33 -34 15 0 -9 106 -240 115 -248 2
-2 8 -1 14 2 6 4 6 18 1 37 -5 16 -6 37 -3 45 3 8 55 40 116 70 113 57 126 58
127 12 0 -10 -37 -92 -82 -182 l-82 -164 34 -76 c34 -80 57 -95 52 -35 -2 26
15 74 68 189 39 85 73 156 75 159 3 2 25 -15 49 -37 25 -23 57 -44 71 -48 39
-10 105 2 134 24 65 48 85 115 60 207 -17 64 -151 335 -166 335 -7 0 -13 -2
-13 -4z m95 -248 c44 -95 28 -160 -51 -198 -40 -20 -51 -21 -84 -11 -21 6 -52
27 -70 47 -33 38 -67 100 -59 109 10 10 214 104 227 105 7 0 24 -24 37 -52z"/>
<path d="M670 5641 c-81 -85 -75 -251 9 -251 63 0 69 64 9 93 -33 15 -38 22
-38 50 0 40 31 77 65 77 13 0 40 -7 59 -17 l35 -16 -2 -111 c-2 -128 12 -166
75 -201 35 -18 40 -19 80 -5 60 21 81 63 74 148 l-5 62 27 0 c15 0 32 4 39 8
32 20 37 108 8 132 -9 8 -14 3 -18 -20 -5 -20 -12 -30 -25 -30 -10 0 -74 27
-142 60 -157 76 -195 79 -250 21z m310 -154 c29 -25 27 -81 -5 -112 -32 -33
-57 -31 -97 4 -30 27 -33 34 -36 105 l-4 76 61 -28 c34 -15 70 -36 81 -45z"/>
<path d="M7335 4968 c-141 -51 -201 -198 -134 -329 64 -126 276 -145 385 -35
113 112 66 314 -85 365 -42 14 -126 13 -166 -1z m225 -97 c59 -42 62 -105 7
-160 -66 -68 -186 -107 -272 -89 -57 12 -80 39 -80 93 0 36 6 50 35 80 44 46
99 75 170 91 63 14 104 10 140 -15z"/>
<path d="M390 4902 c0 -10 -9 -35 -20 -57 -42 -83 -13 -177 63 -202 61 -20 92
-7 183 79 87 82 110 91 152 62 16 -11 22 -25 22 -52 0 -64 -39 -102 -118 -112
-23 -3 -44 -9 -45 -14 -2 -8 117 -45 146 -46 4 0 7 11 7 24 0 13 9 43 20 67
36 80 21 176 -32 213 -31 22 -106 20 -141 -3 -16 -10 -56 -48 -90 -85 -68 -72
-100 -83 -137 -46 -52 52 0 132 93 142 43 5 33 22 -20 35 -70 16 -83 16 -83
-5z"/>
<path d="M550 4257 c0 -7 20 -27 44 -44 68 -48 80 -79 80 -205 1 -71 -3 -111
-11 -119 -9 -9 -50 -11 -140 -10 -70 1 -129 4 -131 6 -2 1 0 49 4 105 8 110
16 127 65 137 16 3 29 12 29 19 0 11 -24 14 -115 14 -96 0 -115 -3 -115 -15 0
-8 9 -15 20 -15 12 0 32 -11 45 -25 23 -22 25 -31 25 -125 l0 -101 -122 3
-123 3 0 126 c0 142 4 152 66 171 66 19 49 38 -35 38 l-73 0 -7 -260 c-4 -142
-5 -264 -1 -270 11 -18 25 -10 25 15 0 14 9 34 20 45 19 19 33 20 277 20 283
0 304 -4 313 -54 3 -16 11 -31 18 -34 9 -3 12 56 12 271 l0 274 -79 21 c-92
26 -91 26 -91 9z"/>
<path d="M7430 4198 c-56 -10 -117 -52 -141 -98 -28 -51 -25 -128 6 -174 l24
-36 -24 0 c-14 0 -25 -3 -25 -7 0 -5 12 -41 26 -80 27 -74 44 -93 44 -49 0 13
6 28 13 34 8 7 117 12 310 14 165 2 297 7 297 12 0 5 -9 40 -20 77 -22 72 -40
90 -40 40 0 -17 -6 -31 -16 -35 -23 -9 -174 -7 -174 2 0 4 7 16 15 26 9 11 15
41 15 68 0 139 -146 236 -310 206z m205 -108 c77 -37 96 -118 39 -171 -24 -23
-34 -24 -161 -27 -129 -3 -136 -3 -159 19 -32 30 -33 95 -2 134 50 64 196 87
283 45z"/>
<path d="M7235 3398 c-8 -23 -45 -197 -45 -213 0 -24 14 -17 32 15 22 38 42
38 191 5 89 -20 117 -30 135 -51 27 -31 28 -60 2 -74 -23 -12 -27 -59 -8 -78
18 -18 53 -15 71 6 24 26 21 69 -9 119 l-25 44 28 -7 c55 -13 52 -20 39 89 -9
70 -20 84 -35 43 -16 -40 -23 -40 -220 4 -118 26 -131 33 -131 70 0 31 -17 50
-25 28z"/>
<path d="M763 2672 c-112 -40 -167 -112 -167 -217 2 -213 248 -301 405 -144
48 48 75 127 65 191 -21 138 -165 219 -303 170z m202 -68 c96 -45 55 -177 -78
-253 -110 -62 -189 -61 -228 3 -24 39 -24 57 0 104 33 65 116 125 201 148 60
17 67 17 105 -2z"/>
<path d="M6970 2568 c-57 -119 -63 -144 -22 -105 15 15 33 27 40 27 6 0 93
-38 193 -85 100 -47 183 -84 184 -83 2 2 7 40 12 86 10 86 3 114 -16 62 -6
-19 -17 -30 -28 -30 -10 0 -83 33 -163 73 l-145 72 3 43 c2 23 1 42 -3 42 -3
0 -28 -46 -55 -102z"/>
<path d="M7445 2387 c-9 -33 13 -217 27 -234 14 -18 43 -16 59 3 11 14 8 31
-20 113 -19 53 -40 107 -47 121 l-12 25 -7 -28z"/>
<path d="M6542 2189 c-46 -14 -109 -80 -140 -148 -33 -71 -41 -165 -18 -209
16 -32 61 -62 91 -62 39 0 91 38 152 111 68 81 91 98 105 77 17 -27 8 -70 -24
-109 -25 -32 -33 -51 -36 -97 -5 -70 21 -116 85 -148 l41 -21 -24 -30 c-22
-29 -23 -31 -6 -46 16 -15 20 -14 45 19 16 19 52 53 80 75 69 55 97 101 97
162 0 63 -23 111 -66 138 -36 22 -94 29 -130 16 -20 -7 -22 -3 -29 40 -10 72
-29 97 -70 90 l-32 -5 -6 60 c-3 33 -11 66 -19 74 -19 19 -58 24 -96 13z m66
-91 c11 -13 24 -35 27 -50 6 -24 -3 -38 -76 -119 -46 -50 -91 -95 -101 -100
-25 -14 -58 22 -58 64 1 64 67 167 135 209 39 23 47 23 73 -4z m240 -264 c51
-21 102 -72 102 -103 0 -36 -37 -71 -74 -71 -40 1 -109 32 -141 64 -34 34 -33
78 1 105 32 25 62 26 112 5z"/>
<path d="M1358 1994 c-4 -3 0 -21 9 -40 20 -42 20 -43 -111 -146 -84 -67 -104
-78 -137 -78 -41 0 -49 7 -58 53 -9 40 -32 54 -65 39 -19 -9 -26 -19 -26 -41
0 -48 46 -81 113 -81 l32 -1 -27 -24 c-16 -13 -28 -28 -28 -32 1 -9 124 -83
140 -83 15 0 12 16 -5 30 -22 18 -19 33 18 67 53 50 218 173 232 173 7 0 24
-9 38 -20 48 -38 36 -4 -29 80 -78 101 -88 112 -96 104z"/>
<path d="M1830 1477 c0 -8 7 -20 15 -27 26 -22 17 -44 -61 -140 -42 -52 -100
-124 -128 -158 -28 -35 -49 -67 -47 -70 6 -11 154 -63 160 -56 3 2 -8 15 -24
28 -34 27 -39 16 88 173 97 120 115 133 151 109 29 -18 36 -20 36 -7 0 5 -37
40 -82 77 -115 93 -108 89 -108 71z"/>
<path d="M6113 1455 c-30 -24 -42 -50 -58 -119 l-6 -30 -24 30 c-13 16 -25 27
-27 24 -22 -29 -78 -122 -78 -129 0 -5 13 -4 31 2 29 11 32 10 67 -28 20 -22
76 -89 125 -148 l87 -107 60 47 c33 27 60 54 60 61 0 16 -6 15 -34 -3 -13 -9
-30 -13 -38 -10 -23 9 -198 231 -198 252 0 28 37 82 65 95 40 18 62 1 175
-140 58 -72 110 -131 115 -131 6 0 35 22 65 49 l55 50 -41 -6 -41 -6 -88 108
c-119 148 -138 164 -195 164 -33 0 -54 -7 -77 -25z"/>
<path d="M2345 1083 c-33 -9 -37 -27 -7 -33 17 -3 28 -12 30 -25 1 -11 -25
-76 -58 -145 -67 -139 -75 -188 -39 -234 70 -89 254 -94 267 -7 9 56 -62 69
-87 16 -24 -51 -60 -59 -105 -24 -30 23 -33 53 -12 104 l15 35 113 0 c132 0
172 14 202 71 18 32 18 41 7 78 -18 62 -57 83 -143 78 l-68 -4 0 33 c0 52 -45
74 -115 57z m209 -144 c43 -34 28 -92 -34 -124 -27 -14 -150 -22 -150 -10 0 8
61 128 72 143 16 19 82 15 112 -9z"/>
<path d="M5465 1034 c-86 -47 -121 -118 -116 -232 2 -35 17 -18 30 32 37 146
196 166 286 36 15 -22 26 -42 24 -44 -2 -2 -64 -34 -136 -70 -73 -36 -133 -69
-133 -72 0 -19 49 -69 84 -85 54 -24 100 -24 153 2 117 56 145 212 63 342 -41
65 -98 100 -168 104 -39 2 -66 -2 -87 -13z m249 -270 c23 -90 -87 -162 -149
-99 -14 13 -25 29 -25 34 0 9 143 89 161 91 4 0 10 -12 13 -26z"/>
<path d="M1495 950 c-37 -41 10 -101 62 -77 31 14 38 43 19 72 -20 30 -56 32
-81 5z"/>
<path d="M4757 767 c-167 -41 -168 -41 -163 -66 3 -14 8 -45 11 -68 9 -55 23
-55 31 -1 4 22 15 49 24 58 14 14 188 66 195 58 1 -2 -35 -104 -80 -228 -46
-124 -81 -228 -79 -231 3 -5 331 69 343 77 8 6 -24 115 -33 112 -5 -2 -10 -18
-11 -36 -1 -18 -10 -38 -20 -46 -18 -13 -155 -50 -161 -43 -2 2 32 104 76 227
44 122 80 225 80 227 0 8 -58 -2 -213 -40z"/>
<path d="M3189 737 c-59 -39 -74 -76 -128 -300 -29 -118 -59 -223 -67 -235
-11 -16 -25 -22 -55 -22 -49 0 -51 -16 -1 -29 203 -53 244 -60 249 -43 3 6 -2
12 -11 12 -8 0 -27 11 -42 23 l-27 24 62 259 c35 142 69 269 77 282 19 30 36
17 53 -37 13 -44 38 -59 71 -41 25 14 35 52 20 80 -27 51 -142 67 -201 27z"/>
</g>
</svg>
